# xmcd
#
# Track frame offsets:
#	150
#	15293
#	39914
#	69919
#	82575
#	106269
#	126341
#	151944
#
# Disc length: 2315 seconds
#
# Revision: 1
# Processed by: cddbd v1.5.2PL0 Copyright (c) Steve Scherf et al.
# Submitted via: audiograbber 1.83.01
#
DISCID=4a090908
DTITLE=Lee Clayton - Naked child
DYEAR=1900
DGENRE=
TTITLE0=Saturday night special
TTITLE1=I ride alone
TTITLE2=10000 tears/sexual moon
TTITLE3=Wind and rain
TTITLE4=i love you
TTITLE5=Faded virgin
TTITLE6=a little cocain
TTITLE7=If i can do ti
EXTD=
EXTT0=
EXTT1=
EXTT2=
EXTT3=
EXTT4=
EXTT5=
EXTT6=
EXTT7=
PLAYORDER=
